# xmcd
#
# Track frame offsets: 
#        150
#        4925
#        24085
#        41187
#        51065
#        69757
#        79375
#        95225
#        110270
#        125705
#        138970
#
# Disc length: 2173 seconds
#
# Revision: 3
# Processed by: cddbd v1.5.2PL0 Copyright (c) Steve Scherf et al.
# Submitted via: ExactAudioCopy v0.95b4
#
DISCID=8f087b0b
DTITLE=System Of A Down - Mezmerize
DYEAR=2005
DGENRE=Alternative Metal
TTITLE0=Soldier Side - Intro
TTITLE1=B.Y.O.B.
TTITLE2=Revenga
TTITLE3=Cigaro
TTITLE4=Radio - Video
TTITLE5=This Cocaine Makes Me Feel Like I'm On This Song
TTITLE6=Violent Pornography
TTITLE7=Question!
TTITLE8=Sad Statue
TTITLE9=Old School Hollywood
TTITLE10=Lost In Hollywood
EXTD=Rick Rubin \ Daron Malakian
EXTT0=Daron Malakian
EXTT1=Malakian \ Tankian
EXTT2=Malakian \ Tankian
EXTT3=Malakian \ Tankian
EXTT4=Daron Malakian
EXTT5=Malakian \ Tankian
EXTT6=Daron Malakian
EXTT7=Malakian \ Tankian
EXTT8=Malakian \ Tankian
EXTT9=Daron Malakian
EXTT10=Malakian \ Tankian
PLAYORDER=
